<svg width="93" height="103" viewBox="0 0 93 103" fill="none" xmlns="http://www.w3.org/2000/svg">
<path id="Vector" d="M53.7656 76.7707H39.2344C36.8186 76.7707 34.875 74.6311 34.875 71.9716V38.3779H18.9451C15.7119 38.3779 14.0953 34.0787 16.384 31.5591L44.0115 1.12479C45.3738 -0.37493 47.608 -0.37493 48.9703 1.12479L76.616 31.5591C78.9047 34.0787 77.2881 38.3779 74.0549 38.3779H58.125V71.9716C58.125 74.6311 56.1814 76.7707 53.7656 76.7707ZM93 75.171V97.5668C93 100.226 91.0564 102.366 88.6406 102.366H4.35938C1.94355 102.366 0 100.226 0 97.5668V75.171C0 72.5115 1.94355 70.3719 4.35938 70.3719H29.0625V71.9716C29.0625 78.1505 33.6217 83.1695 39.2344 83.1695H53.7656C59.3783 83.1695 63.9375 78.1505 63.9375 71.9716V70.3719H88.6406C91.0564 70.3719 93 72.5115 93 75.171ZM70.4766 92.7677C70.4766 90.5682 68.8418 88.7685 66.8438 88.7685C64.8457 88.7685 63.2109 90.5682 63.2109 92.7677C63.2109 94.9673 64.8457 96.767 66.8438 96.767C68.8418 96.767 70.4766 94.9673 70.4766 92.7677ZM82.1016 92.7677C82.1016 90.5682 80.4668 88.7685 78.4688 88.7685C76.4707 88.7685 74.8359 90.5682 74.8359 92.7677C74.8359 94.9673 76.4707 96.767 78.4688 96.767C80.4668 96.767 82.1016 94.9673 82.1016 92.7677Z" fill="#3E8A9B"/>
</svg>
